<svg xmlns="http://www.w3.org/2000/svg" width="512.529" height="512.528" viewBox="0 0 512.529 512.528">
  <path id="_23" data-name="#23" d="M511.517,256.744H473.775M510.219,282.6l-37.553-3.778m33.371,30.706L469.1,301.753m30.012,33.71-35.9-11.65m26.365,36.493L455.1,344.957m22.446,38.965-32.706-18.837m18.042,41.4-30.522-22.2m13.877,42.753-28.1-25.194m9.16,44.161L402,418m4.695,44.733-22.313-30.44m-.143,45.072-18.957-32.637m-4.767,44.76L345.04,455.059M335.6,499.066,323.815,463.21m-14.03,42.765-7.919-36.9m-18.49,41.058-3.921-37.539M255.751,511.5l.145-37.741m-26.686,36.27,3.921-37.538m-30.3,33.29,7.919-36.9M177.067,498.79l11.786-35.855m-36.636,26.2,15.477-34.423m-39.122,22.244,18.958-32.636m-41.324,17.966,22.314-30.44m-42.82,13.7,25.3-28.011m-44.14,9.045,28.1-25.194m-44.9,4.317,30.6-22.09m-44.928-.091,32.706-18.837m-44.662-4.723,34.481-15.349m-44.16-10.07,35.943-11.515M7.432,309.343l36.932-7.778M3.281,282.509l37.553-3.777M2,254.739l37.741.292M3.476,229.1,41,233.162M7.855,202.169l36.872,8.059M14.971,176.263l35.81,11.921m-26.15-36.569L59,167.219M36.635,128.405,69.2,147.482M51.643,105.611,82,128.035M67.93,85.716l27.918,25.4M87.214,66.584l25.092,28.194M108.5,49.541l21.979,30.683m-.284-44.63L148.91,68.37m4.5-44.551,15.219,34.538m11.179-44.542L191.187,49.8M204.228,7.4l7.638,36.962M231.779,3.192l3.633,37.567M259.757,2l-.437,37.74M284.642,3.49,280.432,41m31.6-33-8.2,36.841m34.187-29.617L325.963,50.988m36.616-26.051L346.846,59.245m38.829-22.28-19.2,32.5m42.085-17.326L386.029,82.411M428.4,68.482,402.9,96.308m44.626-8.415-28.285,24.989m45.247-3.648L433.726,131.1m44.726.045-32.844,18.6m45.133,6.087-34.65,14.962m43.887,9.944-36.028,11.244m42.455,13.764-36.991,7.5m41,19.67-37.581,3.488" transform="translate(-0.488 -0.483)" fill="none" stroke="#fff" stroke-linecap="round" stroke-linejoin="round" stroke-width="3"/>
</svg>
